<mxfile host="app.diagrams.net" modified="2021-10-22T22:12:34.782Z" agent="5.0 (X11)" etag="HKW_sTUxkO28xzZhk2DC" version="15.1.4" type="github">
  <diagram id="VB9oeREZIh7mgtoJLLE9" name="Page-1">
    <mxGraphModel dx="915" dy="707" grid="1" gridSize="10" guides="1" tooltips="1" connect="1" arrows="1" fold="1" page="1" pageScale="1" pageWidth="850" pageHeight="1100" math="0" shadow="0">
      <root>
        <mxCell id="0" />
        <mxCell id="1" parent="0" />
        <mxCell id="XFotkXhgIL5gJBn1SHlW-3" value="" style="rounded=0;whiteSpace=wrap;html=1;dashed=1;" parent="1" vertex="1">
          <mxGeometry x="88" y="260" width="442" height="200" as="geometry" />
        </mxCell>
        <mxCell id="xLowilmjjYXXcMjxSkcq-2" value="" style="whiteSpace=wrap;html=1;aspect=fixed;" parent="1" vertex="1">
          <mxGeometry x="156" y="342" width="90" height="90" as="geometry" />
        </mxCell>
        <mxCell id="xLowilmjjYXXcMjxSkcq-1" value="" style="whiteSpace=wrap;html=1;aspect=fixed;" parent="1" vertex="1">
          <mxGeometry x="146" y="332" width="90" height="90" as="geometry" />
        </mxCell>
        <mxCell id="XFotkXhgIL5gJBn1SHlW-38" value="" style="rounded=0;whiteSpace=wrap;html=1;fontSize=16;dashed=1;fillColor=none;" parent="1" vertex="1">
          <mxGeometry x="64" y="171" width="291" height="312" as="geometry" />
        </mxCell>
        <mxCell id="XFotkXhgIL5gJBn1SHlW-1" value="" style="rounded=0;whiteSpace=wrap;html=1;" parent="1" vertex="1">
          <mxGeometry x="90" y="191" width="189" height="30" as="geometry" />
        </mxCell>
        <mxCell id="XFotkXhgIL5gJBn1SHlW-2" value="DigitalOcean LoadBalancer" style="text;html=1;align=center;verticalAlign=middle;resizable=0;points=[];autosize=1;strokeColor=none;fontSize=12;" parent="1" vertex="1">
          <mxGeometry x="104.5" y="201" width="160" height="20" as="geometry" />
        </mxCell>
        <mxCell id="XFotkXhgIL5gJBn1SHlW-4" value="DigitalOcean K8S" style="text;html=1;align=center;verticalAlign=middle;resizable=0;points=[];autosize=1;strokeColor=none;fontSize=20;" parent="1" vertex="1">
          <mxGeometry x="101" y="273" width="170" height="30" as="geometry" />
        </mxCell>
        <mxCell id="XFotkXhgIL5gJBn1SHlW-5" value="" style="whiteSpace=wrap;html=1;aspect=fixed;" parent="1" vertex="1">
          <mxGeometry x="136" y="322" width="90" height="90" as="geometry" />
        </mxCell>
        <mxCell id="XFotkXhgIL5gJBn1SHlW-6" value="&lt;div&gt;Worker&lt;/div&gt;&lt;div&gt;Node&lt;/div&gt;" style="text;html=1;align=center;verticalAlign=middle;resizable=0;points=[];autosize=1;strokeColor=none;fontSize=16;" parent="1" vertex="1">
          <mxGeometry x="146" y="333" width="70" height="40" as="geometry" />
        </mxCell>
        <mxCell id="XFotkXhgIL5gJBn1SHlW-39" value="kube-api" style="text;html=1;align=left;verticalAlign=middle;resizable=0;points=[];autosize=1;strokeColor=none;" parent="1" vertex="1">
          <mxGeometry x="465" y="121" width="60" height="20" as="geometry" />
        </mxCell>
        <mxCell id="XFotkXhgIL5gJBn1SHlW-51" value="&lt;div&gt;first&amp;nbsp;&amp;nbsp;&amp;nbsp;&amp;nbsp;&amp;nbsp;&amp;nbsp;&amp;nbsp; .fabianlee-lab.online&lt;/div&gt;&lt;div&gt;second&amp;nbsp; .fabianlee-lab.online&lt;/div&gt;" style="text;html=1;align=left;verticalAlign=middle;resizable=0;points=[];autosize=1;strokeColor=none;" parent="1" vertex="1">
          <mxGeometry x="200" y="124" width="170" height="30" as="geometry" />
        </mxCell>
        <mxCell id="XFotkXhgIL5gJBn1SHlW-54" value="" style="endArrow=none;startArrow=classic;html=1;fontSize=16;fillColor=#f5f5f5;rounded=0;startFill=1;endFill=0;" parent="1" edge="1">
          <mxGeometry width="50" height="50" relative="1" as="geometry">
            <mxPoint x="191.5" y="193" as="sourcePoint" />
            <mxPoint x="192" y="120" as="targetPoint" />
          </mxGeometry>
        </mxCell>
        <mxCell id="XFotkXhgIL5gJBn1SHlW-55" value="" style="endArrow=none;startArrow=classic;html=1;fontSize=16;fillColor=#f5f5f5;rounded=0;strokeColor=#000033;exitX=0.5;exitY=0;exitDx=0;exitDy=0;endFill=0;" parent="1" source="xLowilmjjYXXcMjxSkcq-5" edge="1">
          <mxGeometry width="50" height="50" relative="1" as="geometry">
            <mxPoint x="455.75" y="172" as="sourcePoint" />
            <mxPoint x="456" y="120" as="targetPoint" />
          </mxGeometry>
        </mxCell>
        <mxCell id="XFotkXhgIL5gJBn1SHlW-61" value="NGINX ingress" style="text;html=1;align=center;verticalAlign=middle;resizable=0;points=[];autosize=1;strokeColor=none;fontSize=11;" parent="1" vertex="1">
          <mxGeometry x="104" y="231" width="90" height="20" as="geometry" />
        </mxCell>
        <mxCell id="XFotkXhgIL5gJBn1SHlW-62" value="" style="endArrow=none;startArrow=classic;html=1;fontSize=16;fillColor=#f5f5f5;rounded=0;strokeColor=#000033;endFill=0;" parent="1" edge="1">
          <mxGeometry x="163" y="239" width="50" height="50" as="geometry">
            <mxPoint x="192" y="260" as="sourcePoint" />
            <mxPoint x="192" y="220" as="targetPoint" />
          </mxGeometry>
        </mxCell>
        <mxCell id="xLowilmjjYXXcMjxSkcq-3" value="" style="whiteSpace=wrap;html=1;aspect=fixed;" parent="1" vertex="1">
          <mxGeometry x="430" y="341" width="90" height="90" as="geometry" />
        </mxCell>
        <mxCell id="xLowilmjjYXXcMjxSkcq-4" value="" style="whiteSpace=wrap;html=1;aspect=fixed;" parent="1" vertex="1">
          <mxGeometry x="420" y="331" width="90" height="90" as="geometry" />
        </mxCell>
        <mxCell id="xLowilmjjYXXcMjxSkcq-5" value="" style="whiteSpace=wrap;html=1;aspect=fixed;" parent="1" vertex="1">
          <mxGeometry x="410" y="321" width="90" height="90" as="geometry" />
        </mxCell>
        <mxCell id="xLowilmjjYXXcMjxSkcq-6" value="Master" style="text;html=1;align=center;verticalAlign=middle;resizable=0;points=[];autosize=1;strokeColor=none;fontSize=16;" parent="1" vertex="1">
          <mxGeometry x="425" y="342" width="60" height="20" as="geometry" />
        </mxCell>
        <mxCell id="xLowilmjjYXXcMjxSkcq-7" value="" style="rounded=0;whiteSpace=wrap;html=1;fontSize=16;dashed=1;fillColor=none;" parent="1" vertex="1">
          <mxGeometry x="370" y="170" width="180" height="312" as="geometry" />
        </mxCell>
        <mxCell id="xLowilmjjYXXcMjxSkcq-8" value="" style="endArrow=classic;startArrow=classic;html=1;fontSize=11;strokeColor=#000000;" parent="1" edge="1">
          <mxGeometry width="50" height="50" relative="1" as="geometry">
            <mxPoint x="226" y="366.5" as="sourcePoint" />
            <mxPoint x="410" y="367" as="targetPoint" />
          </mxGeometry>
        </mxCell>
      </root>
    </mxGraphModel>
  </diagram>
</mxfile>
